<svg width="67" height="67" viewBox="0 0 67 67" fill="none" xmlns="http://www.w3.org/2000/svg">
<path fill-rule="evenodd" clip-rule="evenodd" d="M5 0C2.23828 0 0 2.23877 0 5V62C0 64.7612 2.23828 67 5 67H62C64.7617 67 67 64.7612 67 62V5C67 2.23877 64.7617 0 62 0H5ZM28.5137 14.7461L11.9775 31.2822C11.2588 32.0005 11.2588 33.1621 11.9775 33.8804L28.5137 50.4165C29.0391 50.9419 29.8271 51.1021 30.5156 50.8154C31.2031 50.5322 31.6494 49.8599 31.6494 49.1177V39.6606C35.1992 39.3154 44.8418 39.6626 52.1191 51.8955C52.2842 52.1714 52.5137 52.3921 52.7793 52.5454C53.0566 52.7051 53.374 52.792 53.6982 52.792C53.8594 52.792 54.0234 52.77 54.1865 52.7261C54.9824 52.5073 55.5352 51.7817 55.5352 50.9551L55.543 50.5986V50.5884C55.5791 49.2212 55.6758 45.626 54.3994 41.2021C51.4453 30.9736 42.2217 23.8354 31.6494 23.4019V16.0454C31.6494 15.3032 31.2031 14.6304 30.5156 14.3477C30.0674 14.1621 29.5762 14.1655 29.1436 14.3345C28.9121 14.4253 28.6973 14.5635 28.5137 14.7461Z" fill="white"/>
</svg>
