<svg width="19" height="14" viewBox="0 0 19 14" fill="none" xmlns="http://www.w3.org/2000/svg">
<path fill-rule="evenodd" clip-rule="evenodd" d="M0 6.66667C0.7875 2.86333 5.21917 0 9.33333 0C13.4475 0 17.8792 2.86333 18.6667 6.66667C17.8792 10.47 13.4475 13.3333 9.33333 13.3333C5.21917 13.3333 0.7875 10.47 0 6.66667ZM9.33333 10.8333C10.4384 10.8333 11.4982 10.3943 12.2796 9.61294C13.061 8.83154 13.5 7.77174 13.5 6.66667C13.5 5.5616 13.061 4.50179 12.2796 3.72039C11.4982 2.93899 10.4384 2.5 9.33333 2.5C8.22826 2.5 7.16846 2.93899 6.38705 3.72039C5.60565 4.50179 5.16667 5.5616 5.16667 6.66667C5.16667 7.77174 5.60565 8.83154 6.38705 9.61294C7.16846 10.3943 8.22826 10.8333 9.33333 10.8333ZM9.33333 9.16667C9.99637 9.16667 10.6323 8.90327 11.1011 8.43443C11.5699 7.96559 11.8333 7.32971 11.8333 6.66667C11.8333 6.00363 11.5699 5.36774 11.1011 4.8989C10.6323 4.43006 9.99637 4.16667 9.33333 4.16667C8.67029 4.16667 8.03441 4.43006 7.56557 4.8989C7.09672 5.36774 6.83333 6.00363 6.83333 6.66667C6.83333 7.32971 7.09672 7.96559 7.56557 8.43443C8.03441 8.90327 8.67029 9.16667 9.33333 9.16667Z" fill="#1C58A6"/>
</svg>
