<?xml version="1.0" encoding="utf-8"?>
<!-- Generator: Adobe Illustrator 22.0.1, SVG Export Plug-In . SVG Version: 6.00 Build 0)  -->
<svg version="1.1" id="Capa_1" xmlns="http://www.w3.org/2000/svg" xmlns:xlink="http://www.w3.org/1999/xlink" x="0px" y="0px"
	 viewBox="0 0 24 24" style="enable-background:new 0 0 24 24;" xml:space="preserve">
<style type="text/css">
	.st0{fill:#0F3356;}
	.st1{fill:#081D3A;}
	.st2{fill:#FFFFFF;}
	.st3{clip-path:url(#SVGID_2_);fill:#081D3A;}
	.st4{clip-path:url(#SVGID_4_);fill:#081D3A;}
	.st5{fill-rule:evenodd;clip-rule:evenodd;fill:#FFFFFF;stroke:#FFFFFF;stroke-width:0.5;stroke-miterlimit:10;}
	.st6{clip-path:url(#SVGID_6_);fill:#081D3A;}
</style>
<g>
	<path class="st0" d="M12,0C5.4,0,0,5.4,0,12c0,6.6,5.4,12,12,12c6.6,0,12-5.4,12-12C24,5.4,18.6,0,12,0z"/>
	<g>
		<defs>
			<path id="SVGID_5_" d="M12,0C5.4,0,0,5.4,0,12c0,6.6,5.4,12,12,12c6.6,0,12-5.4,12-12C24,5.4,18.6,0,12,0z"/>
		</defs>
		<clipPath id="SVGID_2_">
			<use xlink:href="#SVGID_5_"  style="overflow:visible;"/>
		</clipPath>
		<polygon class="st3" points="17.7,5.5 25.6,12.1 17.9,27.5 6.2,18 9.1,6.5 12,5.5 		"/>
	</g>
	<path class="st2" d="M17.2,4.9H6.8c-0.8,0-1.5,0.7-1.5,1.5v10.5c0,0.8,0.7,1.5,1.5,1.5h3l2.2,2.2l2.2-2.2h3c0.8,0,1.5-0.7,1.5-1.5
		V6.4C18.7,5.5,18,4.9,17.2,4.9z M12.7,16.8h-1.5v-1.5h1.5V16.8z M14.3,11l-0.7,0.7c-0.5,0.5-0.9,1-0.9,2.1h-1.5v-0.4
		c0-0.8,0.3-1.6,0.9-2.1l0.9-0.9c0.3-0.3,0.4-0.6,0.4-1.1c0-0.8-0.7-1.5-1.5-1.5c-0.8,0-1.5,0.7-1.5,1.5H9c0-1.7,1.3-3,3-3
		s3,1.3,3,3C15,10,14.7,10.6,14.3,11z"/>
</g>
</svg>
