<svg width="22" height="21" viewBox="0 0 22 21" fill="none" xmlns="http://www.w3.org/2000/svg">
<path d="M7.58333 14.0833H14.0833V16.25H7.58333V14.0833ZM21.6667 15.1667H18.4167V18.4167C18.4167 18.9913 18.1884 19.5424 17.7821 19.9487C17.3757 20.3551 16.8246 20.5833 16.25 20.5833H5.41667C4.84203 20.5833 4.29093 20.3551 3.8846 19.9487C3.47827 19.5424 3.25 18.9913 3.25 18.4167V15.1667H0V6.5C0 5.92536 0.228273 5.37426 0.634602 4.96794C1.04093 4.56161 1.59203 4.33333 2.16667 4.33333H3.25V2.16667C3.25 1.59203 3.47827 1.04093 3.8846 0.634602C4.29093 0.228273 4.84203 0 5.41667 0H16.25C16.8246 0 17.3757 0.228273 17.7821 0.634602C18.1884 1.04093 18.4167 1.59203 18.4167 2.16667V4.33333H19.5C20.0746 4.33333 20.6257 4.56161 21.0321 4.96794C21.4384 5.37426 21.6667 5.92536 21.6667 6.5V15.1667ZM5.41667 4.33333H16.25V2.16667H5.41667V4.33333ZM16.25 11.9167H5.41667V18.4167H16.25V11.9167ZM19.5 8.125C19.4999 7.91153 19.4578 7.70017 19.3761 7.50297C19.2943 7.30578 19.1745 7.12662 19.0235 6.97573C18.8725 6.82483 18.6933 6.70515 18.496 6.62353C18.2988 6.5419 18.0874 6.49993 17.8739 6.5C17.6604 6.50007 17.4491 6.54219 17.2519 6.62394C17.0547 6.7057 16.8755 6.8255 16.7246 6.97649C16.5737 7.12749 16.4541 7.30673 16.3724 7.50397C16.2908 7.70122 16.2488 7.91261 16.2489 8.12608C16.2491 8.5572 16.4205 8.97061 16.7254 9.27536C17.0304 9.5801 17.4439 9.75123 17.875 9.75108C18.3061 9.75094 18.7195 9.57954 19.0243 9.27459C19.329 8.96964 19.5001 8.55612 19.5 8.125Z" fill="#ED4238"/>
</svg>
