<?xml version="1.0" encoding="utf-8"?>
<!-- Generator: Adobe Illustrator 22.0.1, SVG Export Plug-In . SVG Version: 6.00 Build 0)  -->
<svg version="1.1" id="Capa_1" xmlns:sketch="http://www.bohemiancoding.com/sketch/ns"
	 xmlns="http://www.w3.org/2000/svg" xmlns:xlink="http://www.w3.org/1999/xlink" x="0px" y="0px" viewBox="0 0 16 16"
	 style="enable-background:new 0 0 16 16;" xml:space="preserve">
<style type="text/css">
	.st0{fill:#081D3A;}
	.st1{fill:none;stroke:#081D3A;stroke-miterlimit:10;}
	.st2{fill:#A9ABAC;}
	.st3{fill:#FFFFFF;}
</style>
<title></title>
<g>
	<g>
		<path id="XMLID_14_" class="st0" d="M36.1,5.3c-0.1,0-0.2,0-0.3,0c-0.2,0-0.4,0.2-0.6,0.4C35.1,6,35,6.2,34.9,6.4
			c0,0.1-0.1,0.2-0.1,0.3C34.7,6.9,34.4,7,34.2,7s-0.5-0.3-0.5-0.5s0-0.5,0.1-0.7c0.2-0.6,0.7-1,1.3-1.3c0.8-0.3,1.7-0.3,2.5,0.1
			c0.5,0.3,0.9,0.7,1,1.3c0.1,0.5,0,0.9-0.3,1.3C38,7.5,37.8,7.7,37.5,8c-0.1,0.1-0.3,0.2-0.4,0.4c-0.3,0.2-0.5,0.6-0.5,0.9
			c0,0,0,0,0,0.1c-0.1,0.4-0.3,0.5-0.6,0.5s-0.6-0.3-0.6-0.6c0-0.5,0.1-1,0.5-1.4c0.3-0.3,0.6-0.5,0.8-0.8C36.8,7,36.9,6.9,37,6.8
			c0.3-0.4,0.2-1-0.3-1.3C36.5,5.4,36.3,5.3,36.1,5.3z"/>
		<path id="XMLID_13_" class="st0" d="M36.8,11c0,0.4-0.3,0.7-0.8,0.7c-0.4,0-0.7-0.3-0.7-0.8c0-0.4,0.4-0.7,0.8-0.7
			C36.5,10.2,36.8,10.6,36.8,11z"/>
	</g>
	<circle class="st1" cx="36.1" cy="8" r="5.7"/>
</g>
<g>
	<path id="XMLID_10_" class="st2" d="M1.8,8c0-3.5,2.8-6.2,6.3-6.2c3.4,0,6.2,2.8,6.2,6.3c0,3.4-2.8,6.2-6.2,6.2
		C4.5,14.2,1.8,11.5,1.8,8z M8.1,5.2c0.2,0,0.4,0,0.6,0.1C9.2,5.6,9.4,6.2,9,6.7C8.9,6.8,8.8,6.9,8.7,7C8.4,7.3,8.1,7.6,7.8,7.8
		C7.4,8.2,7.3,8.7,7.3,9.3c0,0.4,0.2,0.6,0.6,0.6c0.3,0,0.6-0.1,0.7-0.5c0,0,0,0,0-0.1c0.1-0.4,0.2-0.7,0.6-1C9.3,8.2,9.4,8.1,9.5,8
		c0.3-0.2,0.5-0.5,0.7-0.8c0.3-0.4,0.4-0.9,0.3-1.4c-0.1-0.6-0.5-1.1-1-1.4C8.7,4,7.8,4,6.9,4.3C6.3,4.6,5.8,5,5.6,5.6
		C5.5,5.9,5.4,6.1,5.5,6.4c0,0.2,0.3,0.5,0.5,0.5c0.3,0.1,0.5,0,0.7-0.3c0.1-0.1,0.1-0.2,0.1-0.3C7,6.1,7,5.9,7.2,5.6
		c0.1-0.2,0.3-0.4,0.6-0.4C7.9,5.2,8,5.2,8.1,5.2z M8.8,11.1c0-0.4-0.3-0.8-0.8-0.8c-0.4,0-0.8,0.3-0.8,0.8c0,0.4,0.3,0.8,0.7,0.8
		C8.4,11.9,8.8,11.6,8.8,11.1z"/>
	<path id="XMLID_2_" class="st3" d="M8.1,5.2c-0.1,0-0.2,0-0.3,0c-0.3,0-0.5,0.2-0.6,0.4C7,5.9,7,6.1,6.8,6.3c0,0.1-0.1,0.2-0.1,0.3
		C6.6,6.9,6.3,6.9,6,6.9c-0.2,0-0.5-0.3-0.5-0.5c-0.1-0.3,0-0.5,0.1-0.7C5.8,5,6.3,4.6,6.9,4.3C7.8,4,8.7,4,9.6,4.4
		c0.6,0.3,0.9,0.8,1,1.4c0.1,0.5,0,1-0.3,1.4C10.1,7.5,9.8,7.7,9.5,8C9.4,8.1,9.3,8.2,9.1,8.3c-0.3,0.3-0.5,0.6-0.6,1c0,0,0,0,0,0.1
		c0,0.4-0.3,0.5-0.6,0.5c-0.4,0-0.6-0.3-0.6-0.6c0-0.6,0.1-1,0.5-1.4C8.1,7.6,8.4,7.3,8.7,7C8.8,6.9,8.9,6.8,9,6.7
		c0.4-0.5,0.2-1.1-0.3-1.4C8.5,5.2,8.3,5.2,8.1,5.2z"/>
	<path id="XMLID_1_" class="st3" d="M8.8,11.1c0,0.5-0.3,0.8-0.8,0.8c-0.4,0-0.8-0.4-0.7-0.8c0-0.4,0.4-0.8,0.8-0.8
		C8.4,10.4,8.8,10.7,8.8,11.1z"/>
</g>
</svg>
