<svg width="15" height="18" viewBox="0 0 15 18" fill="none" xmlns="http://www.w3.org/2000/svg">
<path d="M8.43797 9.90022H10.313C10.5616 9.90022 10.8001 9.99505 10.9759 10.1638C11.1517 10.3326 11.2505 10.5615 11.2505 10.8002C11.2505 11.0389 11.1517 11.2679 10.9759 11.4367C10.8001 11.6054 10.5616 11.7003 10.313 11.7003H7.50047C7.37725 11.7006 7.25517 11.6776 7.14126 11.6325C7.02735 11.5874 6.92386 11.5211 6.83673 11.4374C6.7496 11.3538 6.68056 11.2544 6.63358 11.1451C6.58659 11.0357 6.5626 10.9185 6.56297 10.8002V7.20016C6.56297 6.96146 6.66174 6.73254 6.83756 6.56375C7.01337 6.39497 7.25183 6.30014 7.50047 6.30014C7.74911 6.30014 7.98757 6.39497 8.16338 6.56375C8.3392 6.73254 8.43797 6.96146 8.43797 7.20016V9.90022ZM1.75266 6.17504C1.53845 6.07967 1.35271 5.93404 1.21256 5.75161C1.07241 5.56917 0.982372 5.35579 0.950742 5.13115C0.919113 4.90651 0.946914 4.67784 1.03158 4.46623C1.11625 4.25462 1.25505 4.06689 1.4352 3.92034C1.61534 3.77379 1.83103 3.67315 2.06235 3.6277C2.29368 3.58225 2.53321 3.59345 2.75884 3.66027C2.98447 3.72709 3.18894 3.84738 3.3534 4.01004C3.51786 4.1727 3.637 4.3725 3.69985 4.591C4.0377 4.40026 4.39066 4.23535 4.75547 4.09779C4.34547 3.82428 4.03716 3.43221 3.87547 2.97873C3.71378 2.52524 3.70716 2.03404 3.85657 1.57669C4.00599 1.11934 4.30363 0.719749 4.70613 0.436142C5.10863 0.152534 5.59494 -0.000267941 6.09422 3.52702e-07H8.90672C9.40599 -0.000267941 9.89231 0.152534 10.2948 0.436142C10.6973 0.719749 10.9949 1.11934 11.1444 1.57669C11.2938 2.03404 11.2872 2.52524 11.1255 2.97873C10.9638 3.43221 10.6555 3.82428 10.2455 4.09779C10.6111 4.2364 10.9645 4.4011 11.3011 4.591C11.3639 4.3725 11.4831 4.1727 11.6475 4.01004C11.812 3.84738 12.0165 3.72709 12.2421 3.66027C12.4677 3.59345 12.7073 3.58225 12.9386 3.6277C13.1699 3.67315 13.3856 3.77379 13.5657 3.92034C13.7459 4.06689 13.8847 4.25462 13.9694 4.46623C14.054 4.67784 14.0818 4.90651 14.0502 5.13115C14.0186 5.35579 13.9285 5.56917 13.7884 5.75161C13.6482 5.93404 13.4625 6.07967 13.2483 6.17504C14.165 7.22522 14.7506 8.50473 14.9363 9.8633C15.1219 11.2219 14.8999 12.6031 14.2963 13.8448C13.6927 15.0864 12.7326 16.1369 11.5288 16.873C10.3249 17.609 8.92727 18 7.5 18C6.07273 18 4.67509 17.609 3.47122 16.873C2.26736 16.1369 1.30725 15.0864 0.703665 13.8448C0.100079 12.6031 -0.121927 11.2219 0.0637196 9.8633C0.249367 8.50473 0.834959 7.22522 1.75172 6.17504H1.75266ZM7.50047 16.2004C8.23915 16.2004 8.97061 16.0607 9.65306 15.7893C10.3355 15.5179 10.9556 15.1202 11.4779 14.6187C12.0003 14.1173 12.4146 13.522 12.6973 12.8668C12.98 12.2116 13.1255 11.5094 13.1255 10.8002C13.1255 10.0911 12.98 9.38888 12.6973 8.73371C12.4146 8.07853 12.0003 7.48323 11.4779 6.98178C10.9556 6.48033 10.3355 6.08256 9.65306 5.81118C8.97061 5.5398 8.23915 5.40012 7.50047 5.40012C6.00863 5.40012 4.57789 5.96906 3.523 6.98178C2.4681 7.9945 1.87547 9.36804 1.87547 10.8002C1.87547 12.2324 2.4681 13.606 3.523 14.6187C4.57789 15.6314 6.00863 16.2004 7.50047 16.2004ZM6.09422 1.80004C5.9699 1.80004 5.85067 1.84745 5.76276 1.93185C5.67486 2.01624 5.62547 2.1307 5.62547 2.25005C5.62547 2.3694 5.67486 2.48386 5.76276 2.56826C5.85067 2.65265 5.9699 2.70006 6.09422 2.70006H8.90672C9.03104 2.70006 9.15027 2.65265 9.23817 2.56826C9.32608 2.48386 9.37547 2.3694 9.37547 2.25005C9.37547 2.1307 9.32608 2.01624 9.23817 1.93185C9.15027 1.84745 9.03104 1.80004 8.90672 1.80004H6.09422Z" fill="#00D1FF"/>
</svg>
