<?xml version="1.0" encoding="utf-8"?>
<!-- Generator: Adobe Illustrator 22.0.1, SVG Export Plug-In . SVG Version: 6.00 Build 0)  -->
<svg version="1.1" id="Capa_1" xmlns="http://www.w3.org/2000/svg" xmlns:xlink="http://www.w3.org/1999/xlink" x="0px" y="0px"
	 viewBox="0 0 24 24" style="enable-background:new 0 0 24 24;" xml:space="preserve">
<style type="text/css">
	.st0{fill:#0F3356;}
	.st1{fill:#081D3A;}
	.st2{fill:#FFFFFF;}
	.st3{clip-path:url(#SVGID_2_);fill:#081D3A;}
	.st4{clip-path:url(#SVGID_4_);fill:#081D3A;}
	.st5{fill-rule:evenodd;clip-rule:evenodd;fill:#FFFFFF;stroke:#FFFFFF;stroke-width:0.5;stroke-miterlimit:10;}
	.st6{clip-path:url(#SVGID_6_);fill:#081D3A;}
</style>
<g>
	<path class="st0" d="M12,0C5.4,0,0,5.4,0,12c0,6.6,5.4,12,12,12c6.6,0,12-5.4,12-12C24,5.4,18.6,0,12,0z"/>
	<g>
		<defs>
			<path id="SVGID_3_" d="M12,0C5.4,0,0,5.4,0,12c0,6.6,5.4,12,12,12c6.6,0,12-5.4,12-12C24,5.4,18.6,0,12,0z"/>
		</defs>
		<clipPath id="SVGID_2_">
			<use xlink:href="#SVGID_3_"  style="overflow:visible;"/>
		</clipPath>
		<polygon class="st3" points="14.9,4.5 25.6,12.1 17.9,27.5 5.3,17 11,17 11,11.3 13,9.3 16.8,9.3 17.8,10.3 14.9,10.3 		"/>
	</g>
	<path class="st5" d="M19.7,13.3c0,0.5,0,1.1,0,1.6c0,1.1-0.5,1.9-1.2,2.6c-0.9,0.9-2.1,1.6-3.2,2.1c-0.1,0-0.3,0.1-0.4,0
		c-1.3-0.6-2.6-1.3-3.6-2.4c-0.6-0.6-0.9-1.4-0.9-2.3c0-1.2,0-2.4,0-3.6c0-0.5,0-0.5,0.5-0.6c0.8-0.1,1.3-0.7,1.4-1.4
		c0-0.4,0.2-0.5,0.5-0.5c1.5,0,2.9,0,4.4,0c0.3,0,0.5,0.1,0.5,0.5c0.1,0.8,0.6,1.3,1.4,1.4c0.5,0.1,0.5,0.1,0.5,0.6c0,0,0,0.1,0,0.1
		C19.7,12.1,19.7,12.7,19.7,13.3z M13,9.6c-0.2,1-0.8,1.6-1.7,1.8c-0.1,0-0.2,0.2-0.2,0.3c0,1.1,0,2.1,0,3.2c0,0.6,0.2,1.2,0.6,1.7
		c0.9,1.1,2,1.7,3.3,2.3c0.1,0,0.2,0,0.3,0c1.1-0.5,2.1-1.1,3-2c0.5-0.5,0.8-1,0.8-1.7c0-1.2,0-2.3,0-3.5c0-0.1-0.1-0.3-0.2-0.3
		c-0.8-0.2-1.3-0.8-1.6-1.6c0-0.1-0.2-0.2-0.2-0.2C15.6,9.6,14.3,9.6,13,9.6z"/>
	<path class="st5" d="M4.5,10.9c0-1.6,0-3.2,0-4.8c0-0.9,0.6-1.6,1.5-1.6c2.5,0,5.1,0,7.6,0c0.9,0,1.5,0.6,1.5,1.5c0,0.5,0,1,0,1.5
		c0,0.2-0.1,0.4-0.3,0.4c-0.2,0-0.3-0.2-0.3-0.4c0-0.5,0-1,0-1.4c0-0.6-0.3-1-0.9-1c-2.5,0-5,0-7.6,0c-0.6,0-0.9,0.3-0.9,0.9
		c0,3.2,0,6.4,0,9.7c0,0.6,0.3,0.9,0.9,0.9c1.1,0,2.2,0,3.3,0c0.1,0,0.2,0,0.2,0c0.2,0,0.4,0.1,0.3,0.3c0,0.1-0.2,0.3-0.3,0.3
		c-1.3,0-2.6,0-3.9,0c-0.8,0-1.3-0.7-1.3-1.5C4.5,14.2,4.5,12.6,4.5,10.9z"/>
	<path class="st5" d="M9.9,7.4c-0.9,0-1.8,0-2.7,0c-0.2,0-0.5,0-0.5-0.3c0-0.3,0.2-0.3,0.4-0.3c1.8,0,3.7,0,5.5,0
		c0.2,0,0.4,0,0.4,0.3c0,0.3-0.2,0.3-0.5,0.3C11.7,7.4,10.8,7.4,9.9,7.4z"/>
	<path class="st5" d="M8.9,9.2c-0.6,0-1.1,0-1.7,0c-0.2,0-0.4,0-0.5-0.3c0-0.3,0.2-0.4,0.4-0.4c1.1,0,2.3,0,3.4,0
		c0.2,0,0.4,0.1,0.4,0.3c0,0.3-0.2,0.3-0.4,0.3C10,9.2,9.4,9.2,8.9,9.2z"/>
	<path class="st5" d="M8.1,10.9c-0.3,0-0.7,0-1,0c-0.2,0-0.4-0.1-0.4-0.3c0-0.2,0.2-0.3,0.4-0.3c0.7,0,1.4,0,2.1,0
		c0.2,0,0.4,0.1,0.3,0.3c0,0.1-0.2,0.3-0.4,0.3C8.8,10.9,8.5,10.9,8.1,10.9L8.1,10.9z"/>
	<path class="st5" d="M7.7,14.3c0.2,0,0.4,0,0.6,0c0.2,0,0.4,0.1,0.4,0.3c0,0.2-0.1,0.3-0.4,0.3c-0.4,0-0.9,0-1.3,0
		c-0.2,0-0.4-0.1-0.3-0.3c0-0.1,0.2-0.3,0.3-0.3C7.3,14.2,7.5,14.3,7.7,14.3z"/>
	<path class="st5" d="M12.1,13.8c0-0.4,0-0.9,0-1.3c0-0.2,0.1-0.4,0.3-0.5c0.5-0.3,0.9-0.7,1.2-1.2c0.1-0.2,0.3-0.3,0.5-0.3
		c0.7,0,1.3,0,2,0c0.2,0,0.4,0,0.5,0.3c0,0.3-0.2,0.3-0.5,0.3c-0.6,0-1.1,0-1.7,0c-0.1,0-0.3,0.1-0.4,0.2c-0.3,0.3-0.7,0.6-1,1
		c-0.1,0.1-0.2,0.3-0.2,0.4c0,0.7,0,1.4,0,2.1c0,0.2,0.1,0.5,0.3,0.7c0.5,0.6,1.2,1.1,1.9,1.4c0.1,0,0.2,0,0.3,0
		c0.3-0.2,0.6-0.4,0.9-0.6c0.2-0.1,0.4-0.2,0.5,0c0.2,0.2,0,0.4-0.2,0.5c-0.4,0.3-0.9,0.5-1.3,0.8c-0.1,0.1-0.3,0.1-0.4,0
		c-0.8-0.4-1.6-0.9-2.2-1.6c-0.4-0.4-0.6-0.8-0.5-1.4C12.2,14.5,12.1,14.2,12.1,13.8z"/>
</g>
</svg>
