<svg width="18" height="22" viewBox="0 0 18 22" fill="none" xmlns="http://www.w3.org/2000/svg">
<path d="M9 0C6.61392 0.00272916 4.32639 0.914188 2.63918 2.53444C0.951966 4.1547 0.00284194 6.35145 0 8.64284C0 16.0381 8.18182 21.624 8.53016 21.858C8.66794 21.9504 8.83194 22 9 22C9.16806 22 9.33206 21.9504 9.46984 21.858C9.81818 21.624 18 16.0381 18 8.64284C17.9972 6.35145 17.048 4.1547 15.3608 2.53444C13.6736 0.914188 11.3861 0.00272916 9 0ZM9.00061 5.50028C9.6479 5.50028 10.2806 5.68461 10.8188 6.02995C11.357 6.37529 11.7765 6.86614 12.0242 7.44042C12.2719 8.0147 12.3367 8.64662 12.2105 9.25627C12.0842 9.86593 11.7725 10.4259 11.3148 10.8655C10.8571 11.305 10.2739 11.6043 9.63909 11.7256C9.00424 11.8469 8.34621 11.7846 7.7482 11.5467C7.15018 11.3089 6.63905 10.906 6.27944 10.3892C5.91983 9.87237 5.72789 9.26473 5.72789 8.64313C5.72789 7.8096 6.07269 7.0102 6.68645 6.4208C7.3002 5.8314 8.13263 5.50028 9.00061 5.50028Z" fill="#00D1FF"/>
</svg>
