<?xml version="1.0" encoding="utf-8"?>
<!-- Generator: Adobe Illustrator 22.0.1, SVG Export Plug-In . SVG Version: 6.00 Build 0)  -->
<svg version="1.1" id="Capa_1" xmlns="http://www.w3.org/2000/svg" xmlns:xlink="http://www.w3.org/1999/xlink" x="0px" y="0px"
	 viewBox="0 0 24 24" style="enable-background:new 0 0 24 24;" xml:space="preserve">
<style type="text/css">
	.st0{fill:#0F3356;}
	.st1{fill:#081D3A;}
	.st2{fill:#FFFFFF;}
	.st3{clip-path:url(#SVGID_2_);fill:#081D3A;}
	.st4{clip-path:url(#SVGID_4_);fill:#081D3A;}
	.st5{fill-rule:evenodd;clip-rule:evenodd;fill:#FFFFFF;stroke:#FFFFFF;stroke-width:0.5;stroke-miterlimit:10;}
	.st6{clip-path:url(#SVGID_6_);fill:#081D3A;}
</style>
<g>
	<path class="st0" d="M12,0C5.4,0,0,5.4,0,12c0,6.6,5.4,12,12,12c6.6,0,12-5.4,12-12C24,5.4,18.6,0,12,0z"/>
	<path class="st0" d="M12,0.7C6.3,0.7,1.7,5.3,1.7,11c0,5.7,4.6,10.3,10.3,10.3c5.7,0,10.3-4.6,10.3-10.3C22.3,5.3,17.7,0.7,12,0.7z
		"/>
	<path class="st1" d="M24,12.6l-9.5-7.6l-6,7.1l6.5,5.5L5,18.1l4.5,5.6c0.8,0.2,1.7,0.3,2.6,0.3C18.4,24,23.7,18.9,24,12.6z"/>
	<path class="st2" d="M12.1,4.3C12.1,4.3,12.1,4.3,12.1,4.3c2.6,0,4.7,2.1,4.7,4.7c0,2.6-2.1,4.7-4.7,4.7c0,0,0,0,0,0
		c-2.6,0-4.7-2.1-4.7-4.7C7.4,6.4,9.5,4.3,12.1,4.3z"/>
	<path class="st2" d="M12.2,18.2H5.1c0-1.7,1.5-3.1,3.4-3.1h3.7h3.7c1.9,0,3.4,1.4,3.4,3.1H12.2z"/>
</g>
</svg>
