<svg width="57" height="44" viewBox="0 0 57 44" fill="none" xmlns="http://www.w3.org/2000/svg">
<path d="M52.25 0H4.75C2.1276 0 0 2.11161 0 4.71429V39.2857C0 41.8884 2.1276 44 4.75 44H52.25C54.8724 44 57 41.8884 57 39.2857V4.71429C57 2.11161 54.8724 0 52.25 0ZM52.25 39.2857H4.75V4.71429H52.25V39.2857ZM20.5833 22C24.0766 22 26.9167 19.1812 26.9167 15.7143C26.9167 12.2473 24.0766 9.42857 20.5833 9.42857C17.0901 9.42857 14.25 12.2473 14.25 15.7143C14.25 19.1812 17.0901 22 20.5833 22ZM11.7167 34.5714H29.45C30.6771 34.5714 31.6667 33.7268 31.6667 32.6857V30.8C31.6667 27.6768 28.688 25.1429 25.0167 25.1429C23.9479 25.1429 23.1661 25.9286 20.5833 25.9286C17.9214 25.9286 17.2781 25.1429 16.15 25.1429C12.4786 25.1429 9.5 27.6768 9.5 30.8V32.6857C9.5 33.7268 10.4896 34.5714 11.7167 34.5714ZM35.625 28.2857H46.7083C47.1438 28.2857 47.5 27.9321 47.5 27.5V25.9286C47.5 25.4964 47.1438 25.1429 46.7083 25.1429H35.625C35.1896 25.1429 34.8333 25.4964 34.8333 25.9286V27.5C34.8333 27.9321 35.1896 28.2857 35.625 28.2857ZM35.625 22H46.7083C47.1438 22 47.5 21.6464 47.5 21.2143V19.6429C47.5 19.2107 47.1438 18.8571 46.7083 18.8571H35.625C35.1896 18.8571 34.8333 19.2107 34.8333 19.6429V21.2143C34.8333 21.6464 35.1896 22 35.625 22ZM35.625 15.7143H46.7083C47.1438 15.7143 47.5 15.3607 47.5 14.9286V13.3571C47.5 12.925 47.1438 12.5714 46.7083 12.5714H35.625C35.1896 12.5714 34.8333 12.925 34.8333 13.3571V14.9286C34.8333 15.3607 35.1896 15.7143 35.625 15.7143Z" fill="#21F1F7"/>
</svg>
