<svg width="93" height="93" viewBox="0 0 93 93" fill="none" xmlns="http://www.w3.org/2000/svg">
<path fill-rule="evenodd" clip-rule="evenodd" d="M46.5 93C72.1812 93 93 72.1812 93 46.5C93 20.8188 72.1812 0 46.5 0C20.8188 0 0 20.8188 0 46.5C0 72.1812 20.8188 93 46.5 93ZM71.4719 24C70.0235 24.004 68.6348 24.5809 67.6061 25.6058H67.6134C67.5611 25.6568 67.512 25.7111 67.4664 25.7683L41.9381 58.46L26.5462 42.997C26.0415 42.4526 25.4328 42.016 24.7566 41.7132C24.0804 41.4103 23.3503 41.2475 22.6101 41.2343C21.8699 41.2212 21.1346 41.3581 20.4482 41.6367C19.7617 41.9154 19.1382 42.3302 18.6147 42.8564C18.0912 43.3825 17.6785 44.0093 17.4012 44.6992C17.124 45.3892 16.9878 46.1282 17.0009 46.8722C17.0139 47.6162 17.1759 48.3499 17.4772 49.0296C17.7786 49.7093 18.213 50.321 18.7546 50.8283L38.1967 70.3768C38.7208 70.9036 39.3452 71.3188 40.0325 71.5976C40.7199 71.8763 41.4561 72.0128 42.1972 71.999C42.9383 71.9853 43.669 71.8214 44.3456 71.5173C45.0223 71.2132 45.6309 70.775 46.1352 70.2291L75.4784 33.3631C76.4776 32.3091 77.0239 30.9022 76.9992 29.4465C76.9745 27.9909 76.3808 26.6035 75.3465 25.5843C74.3122 24.5651 72.9204 23.996 71.4719 24Z" fill="#4285F4"/>
</svg>
