<svg width="21" height="25" viewBox="0 0 21 25" fill="none" xmlns="http://www.w3.org/2000/svg">
<path d="M11.8132 13.7503H14.4382C14.7862 13.7503 15.1201 13.882 15.3662 14.1164C15.6124 14.3509 15.7507 14.6688 15.7507 15.0003C15.7507 15.3319 15.6124 15.6498 15.3662 15.8842C15.1201 16.1187 14.7862 16.2504 14.4382 16.2504H10.5007C10.3281 16.2509 10.1572 16.2189 9.99777 16.1562C9.83829 16.0936 9.6934 16.0015 9.57142 15.8853C9.44944 15.7692 9.35278 15.6312 9.28701 15.4793C9.22123 15.3274 9.18764 15.1646 9.18816 15.0003V10.0002C9.18816 9.6687 9.32644 9.35075 9.57258 9.11632C9.81872 8.8819 10.1526 8.7502 10.5007 8.7502C10.8488 8.7502 11.1826 8.8819 11.4287 9.11632C11.6749 9.35075 11.8132 9.6687 11.8132 10.0002V13.7503ZM2.45372 8.57644C2.15383 8.44398 1.89379 8.24173 1.69759 7.98835C1.50138 7.73496 1.37532 7.4386 1.33104 7.1266C1.28676 6.8146 1.32568 6.497 1.44421 6.2031C1.56275 5.9092 1.75707 5.64845 2.00928 5.44492C2.26148 5.24138 2.56344 5.1016 2.88729 5.03847C3.21115 4.97534 3.54649 4.9909 3.86237 5.08371C4.17826 5.17651 4.46452 5.34358 4.69476 5.5695C4.925 5.79541 5.0918 6.07291 5.17978 6.37639C5.65277 6.11148 6.14692 5.88243 6.65766 5.69138C6.08365 5.31149 5.65202 4.76696 5.42565 4.13712C5.19929 3.50728 5.19002 2.82505 5.3992 2.18985C5.60838 1.55464 6.02508 0.999652 6.58858 0.605753C7.15208 0.211853 7.83292 -0.00037214 8.53191 4.89864e-07H12.4694C13.1684 -0.00037214 13.8492 0.211853 14.4127 0.605753C14.9762 0.999652 15.3929 1.55464 15.6021 2.18985C15.8113 2.82505 15.802 3.50728 15.5757 4.13712C15.3493 4.76696 14.9177 5.31149 14.3437 5.69138C14.8555 5.88388 15.3503 6.11264 15.8215 6.37639C15.9095 6.07291 16.0763 5.79541 16.3066 5.5695C16.5368 5.34358 16.8231 5.17651 17.1389 5.08371C17.4548 4.9909 17.7902 4.97534 18.114 5.03847C18.4379 5.1016 18.7398 5.24138 18.992 5.44492C19.2442 5.64845 19.4386 5.9092 19.5571 6.2031C19.6756 6.497 19.7146 6.8146 19.6703 7.1266C19.626 7.4386 19.4999 7.73496 19.3037 7.98835C19.1075 8.24173 18.8475 8.44398 18.5476 8.57644C19.8311 10.035 20.6509 11.8121 20.9108 13.699C21.1707 15.5859 20.8599 17.5043 20.0149 19.2288C19.1698 20.9533 17.8257 22.4124 16.1403 23.4347C14.4549 24.457 12.4982 25 10.5 25C8.50182 25 6.54512 24.457 4.85971 23.4347C3.1743 22.4124 1.83015 20.9533 0.985131 19.2288C0.14011 17.5043 -0.170698 15.5859 0.0892075 13.699C0.349113 11.8121 1.16894 10.035 2.45241 8.57644H2.45372ZM10.5007 22.5005C11.5348 22.5005 12.5588 22.3065 13.5143 21.9296C14.4697 21.5527 15.3379 21.0002 16.0691 20.3038C16.8004 19.6073 17.3804 18.7805 17.7762 17.8705C18.172 16.9606 18.3757 15.9853 18.3757 15.0003C18.3757 14.0154 18.172 13.0401 17.7762 12.1301C17.3804 11.2202 16.8004 10.3934 16.0691 9.69692C15.3379 9.00046 14.4697 8.448 13.5143 8.07109C12.5588 7.69417 11.5348 7.50017 10.5007 7.50017C8.41208 7.50017 6.40904 8.29036 4.93219 9.69692C3.45535 11.1035 2.62566 13.0112 2.62566 15.0003C2.62566 16.9895 3.45535 18.8972 4.93219 20.3038C6.40904 21.7103 8.41208 22.5005 10.5007 22.5005ZM8.53191 2.50006C8.35786 2.50006 8.19094 2.56591 8.06787 2.68312C7.9448 2.80033 7.87566 2.95931 7.87566 3.12507C7.87566 3.29083 7.9448 3.44981 8.06787 3.56702C8.19094 3.68424 8.35786 3.75008 8.53191 3.75008H12.4694C12.6435 3.75008 12.8104 3.68424 12.9334 3.56702C13.0565 3.44981 13.1257 3.29083 13.1257 3.12507C13.1257 2.95931 13.0565 2.80033 12.9334 2.68312C12.8104 2.56591 12.6435 2.50006 12.4694 2.50006H8.53191Z" fill="#4285F4"/>
</svg>
